<svg xmlns="http://www.w3.org/2000/svg" xmlns:xlink="http://www.w3.org/1999/xlink" aria-hidden="true" role="img" width="64" height="64" viewBox="0 0 24 24" style="color: rgb(228, 171, 0); opacity: 1; transform: rotate(0deg);"><g fill="none"><path d="M12 2a8 8 0 0 1 8 8c0 6.5-8 12-8 12s-8-5.5-8-12a8 8 0 0 1 8-8m0 5a3 3 0 1 0 0 6a3 3 0 0 0 0-6" clip-rule="evenodd"></path><path stroke="currentColor" stroke-width="2" d="M20 10c0 6.5-8 12-8 12s-8-5.5-8-12a8 8 0 1 1 16 0Z"></path><path stroke="currentColor" stroke-width="2" d="M15 10a3 3 0 1 1-6 0a3 3 0 0 1 6 0Z"></path></g></svg>